<svg xmlns="http://www.w3.org/2000/svg" style="display: none;">
  
    <symbol id="icon-rent-car-side" viewBox="0 0 512 512">
      <path d="m14 292c0-3 0-6 1-10c1-3 3-7 5-10c2-4 4-7 6-10c2-3 4-6 6-10c3-3 5-6 7-8c2-2 3-4 5-6c2-2 4-3 4-3c6-7 14-13 23-17c4-8 8-15 13-23c5-8 12-16 22-26c10-10 21-19 32-26c12-7 27-13 45-18c18-5 37-8 58-8c15 0 29 1 42 4c14 2 26 5 36 9c11 4 20 9 30 15c9 5 17 11 24 17c6 5 13 12 19 18c5 7 10 12 14 17c3 5 6 11 9 16c7 1 13 4 19 6c6 3 11 6 15 9c4 2 7 5 10 7c3 3 5 5 6 6c2 2 2 3 2 3c5 5 11 13 16 22c6 8 10 15 11 21c3 11 4 20 4 26c0 4 0 6-1 7c-4 3-7 4-11 4c-5 0-9-3-11-8c-1-2-2-4-2-5c-1-1-2-3-4-7c-3-4-5-8-8-11c-2-3-6-7-10-11c-5-4-9-8-14-10c-5-3-11-5-18-7c-7-2-14-3-22-3c-18 0-34 6-49 20c-14 13-21 27-21 41c0 5-2 8-5 12c-3 3-7 4-11 4l-103 0c-5 0-8-1-11-4c-3-3-5-7-5-12c-1-2-2-6-4-10c-2-5-5-10-9-16c-4-6-9-12-15-17c-5-6-12-10-19-14c-8-4-16-6-24-6c-18 0-32 4-44 10c-11 7-22 18-32 34c-4 5-8 7-14 7c-5 0-9-2-13-6c-3-3-4-8-4-13z m41 42c0-16 6-30 17-41c12-12 26-18 42-18c16 0 30 6 42 18c11 11 17 25 17 41c0 17-6 31-17 42c-12 12-26 17-42 17c-16 0-30-5-42-17c-11-11-17-25-17-42z m32 0c0 8 3 14 8 20c5 5 12 7 19 7c8 0 14-2 19-7c6-6 8-12 8-20c0-7-2-14-8-19c-5-5-11-8-19-8c-7 0-14 3-19 8c-5 5-8 12-8 19z m10 0c0-4 2-8 5-12c4-3 8-5 12-5c4 0 8 2 12 5c4 4 6 8 6 12c0 5-2 8-6 12c-4 4-8 6-12 6c-4 0-8-2-12-6c-3-4-5-7-5-12z m20-130c19-3 40-5 61-5l-5-37c-23 9-41 23-56 42z m23-138c0-11 4-20 12-28c8-8 17-12 28-12c8 0 15 2 22 6c7 4 12 10 15 17l108 0l14 8l0 11l-13 10l-12-10l-13 11l-12-11l-13 13l-12-13l-12 14l-13-14l-12 16l-7-9c-2 9-7 17-14 22c-8 6-16 9-26 9c-11 0-20-4-28-12c-8-7-12-17-12-28z m12 1c0 3 1 5 3 7c2 2 4 3 7 3c3 0 6-1 8-3c2-2 3-4 3-7c0-3-1-6-3-8c-2-2-5-3-8-3c-3 0-5 1-7 3c-2 2-3 5-3 8z m52 85l6 46l33 0c50 0 92 2 128 7c-7-8-13-14-21-20c-7-6-16-12-27-18c-10-5-23-10-37-13c-14-3-29-5-45-5c-14 0-26 1-37 3z m134 182c0-16 6-30 18-41c11-12 25-18 42-18c16 0 30 6 41 18c12 11 18 25 18 41c0 17-6 31-18 42c-11 12-25 17-41 17c-17 0-31-5-42-17c-12-11-18-25-18-42z m33 0c0 8 2 14 7 20c6 5 12 7 20 7c7 0 14-2 19-7c5-6 7-12 7-20c0-7-2-14-7-19c-5-5-12-8-19-8c-8 0-14 3-20 8c-5 5-7 12-7 19z m9 0c0-4 2-8 6-12c3-3 7-5 12-5c4 0 8 2 11 5c4 4 6 8 6 12c0 5-2 8-6 12c-3 4-7 6-11 6c-5 0-9-2-12-6c-4-4-6-7-6-12z"/>
    </symbol>
  
</svg>
