<?xml version="1.0" standalone="no"?>
<!DOCTYPE svg PUBLIC "-//W3C//DTD SVG 20010904//EN"
 "http://www.w3.org/TR/2001/REC-SVG-20010904/DTD/svg10.dtd">
<svg version="1.0" xmlns="http://www.w3.org/2000/svg"
 width="456.000000pt" height="456.000000pt" viewBox="0 0 456.000000 456.000000"
 preserveAspectRatio="xMidYMid meet">
<metadata>
Created by potrace 1.11, written by Peter Selinger 2001-2013
</metadata>
<g transform="translate(0.000000,456.000000) scale(0.100000,-0.100000)"
fill="#000000" stroke="none">
<path d="M0 2280 l0 -2280 2280 0 2280 0 0 2280 0 2280 -2280 0 -2280 0 0
-2280z m3656 1055 c3 -8 -8 -37 -25 -65 -17 -27 -37 -65 -45 -84 -23 -55 -4
-69 139 -103 80 -19 128 -35 145 -51 l25 -22 -40 5 c-63 8 -271 24 -520 40
-126 8 -254 18 -282 21 -43 5 -54 3 -59 -10 -11 -29 5 -63 33 -73 16 -6 69
-25 118 -43 50 -18 150 -62 223 -99 221 -109 474 -314 619 -498 59 -75 69 -83
133 -109 58 -23 70 -31 70 -50 0 -13 -4 -26 -10 -29 -18 -11 -10 -40 18 -66
15 -14 50 -72 77 -127 28 -56 56 -104 64 -107 7 -3 29 0 48 7 29 10 36 10 44
-2 33 -51 20 -107 -31 -132 -49 -24 -200 -38 -399 -38 l-169 0 -22 -67 c-35
-110 -82 -178 -158 -228 -97 -62 -258 -72 -365 -22 -68 31 -173 131 -206 194
-11 23 -31 48 -44 54 -17 10 -231 12 -922 10 -495 -1 -915 -4 -933 -8 -26 -4
-41 -17 -72 -62 -111 -162 -252 -233 -416 -210 -151 21 -264 113 -310 253 -20
60 -26 66 -79 66 -40 0 -105 31 -105 50 0 5 -18 10 -40 10 -52 0 -82 28 -78
73 2 24 13 38 46 60 26 18 50 44 59 66 9 20 35 77 59 126 104 219 320 370 643
450 124 31 200 41 396 55 99 7 168 17 181 25 12 8 60 79 107 158 48 80 100
157 118 171 42 36 108 68 194 96 78 25 101 41 92 64 -6 14 -57 16 -472 16
l-466 0 3 22 c3 20 12 24 83 35 225 35 397 45 915 50 541 5 837 -5 1195 -42
202 -21 199 -22 226 23 34 55 66 93 111 130 44 34 75 41 84 17z"/>
<path d="M2027 3103 c-4 -3 -7 -13 -7 -21 0 -14 41 -14 330 5 l105 7 -65 7
c-87 9 -355 11 -363 2z"/>
<path d="M2530 3091 c8 -4 46 -11 85 -15 38 -4 115 -16 170 -26 134 -27 145
-26 145 5 0 18 -6 26 -22 29 -45 9 -393 16 -378 7z"/>
<path d="M2035 2930 c-166 -13 -313 -67 -378 -139 -37 -41 -187 -274 -187
-291 0 -7 138 -10 465 -8 l464 3 23 23 c22 21 23 30 26 200 1 103 -2 183 -7
192 -17 25 -215 35 -406 20z m309 -29 c76 -13 79 -22 73 -188 -3 -78 -10 -151
-16 -162 -17 -31 -77 -36 -453 -36 -313 0 -349 2 -364 17 -23 23 -20 68 10
133 66 145 156 200 372 230 112 15 304 18 378 6z"/>
<path d="M2085 2860 c-165 -16 -305 -71 -375 -146 -42 -46 -54 -74 -48 -120 3
-24 9 -29 43 -36 22 -5 169 -7 327 -6 338 4 320 -3 339 117 13 88 8 157 -15
179 -19 19 -146 25 -271 12z"/>
<path d="M2501 2927 c-11 -14 -12 -54 -6 -211 4 -106 11 -199 15 -207 7 -10
67 -13 262 -16 144 -1 313 -9 393 -18 263 -30 489 -100 604 -187 74 -56 -7 59
-111 158 -151 144 -354 286 -511 358 -183 85 -327 123 -512 132 -104 6 -122 5
-134 -9z m344 -57 c120 -25 278 -93 327 -142 37 -37 58 -88 58 -143 0 -38 -9
-52 -40 -62 -35 -12 -359 -15 -509 -5 -168 11 -163 6 -159 205 4 186 1 182
138 172 52 -3 136 -15 185 -25z"/>
<path d="M2562 2818 c-15 -15 -16 -168 -2 -219 10 -34 13 -37 63 -43 28 -3
156 -6 283 -6 211 0 232 2 247 18 36 40 17 80 -65 132 -75 49 -199 97 -296
116 -91 17 -214 18 -230 2z"/>
<path d="M3368 2310 c-115 -20 -194 -61 -281 -146 -43 -43 -127 -172 -127
-196 0 -5 34 22 76 61 95 89 210 166 276 186 67 20 180 19 249 -1 97 -29 168
-74 260 -167 91 -93 119 -105 92 -39 -49 119 -213 256 -348 290 -62 16 -145
21 -197 12z"/>
<path d="M665 2260 c-88 -18 -130 -40 -257 -133 -33 -25 -84 -95 -75 -104 4
-3 33 12 64 34 109 76 207 117 323 133 57 8 81 6 143 -10 96 -24 125 -39 195
-103 78 -71 125 -129 169 -212 l38 -70 3 39 c9 107 -143 313 -284 384 -96 48
-212 64 -319 42z"/>
<path d="M642 1939 c-62 -31 -95 -85 -100 -164 -8 -129 50 -211 164 -229 129
-22 244 83 244 221 0 52 -48 132 -98 164 -59 37 -144 40 -210 8z m178 -51 c55
-38 74 -71 74 -132 1 -61 -18 -95 -74 -133 -88 -60 -215 6 -227 118 -13 123
128 214 227 147z"/>
<path d="M660 1853 c-74 -66 -50 -197 40 -224 53 -16 109 1 144 42 31 37 36
114 10 155 -40 60 -142 74 -194 27z m104 -49 c26 -10 37 -39 27 -67 -13 -33
-46 -43 -76 -23 -29 19 -32 51 -8 78 17 19 31 22 57 12z"/>
<path d="M3345 1927 c-21 -12 -53 -41 -69 -65 -25 -35 -31 -55 -34 -110 -3
-56 0 -74 20 -112 66 -123 228 -146 325 -45 71 74 80 185 21 270 -54 80 -180
109 -263 62z m180 -46 c35 -19 75 -92 75 -136 0 -17 -10 -51 -22 -75 -69 -135
-268 -98 -285 53 -16 137 112 225 232 158z"/>
<path d="M3385 1861 c-74 -31 -93 -158 -32 -218 53 -53 156 -38 197 30 38 62
13 152 -50 184 -28 14 -85 16 -115 4z m93 -77 c26 -18 28 -50 5 -76 -32 -35
-93 -10 -93 38 0 22 33 54 55 54 6 0 21 -7 33 -16z"/>
</g>
</svg>
