<?xml version="1.0" encoding="utf-8"?>
<!-- Generator: Adobe Illustrator 16.0.0, SVG Export Plug-In . SVG Version: 6.00 Build 0)  -->
<!DOCTYPE svg PUBLIC "-//W3C//DTD SVG 1.1//EN" "http://www.w3.org/Graphics/SVG/1.1/DTD/svg11.dtd">
<svg version="1.1" id="Layer_1" xmlns="http://www.w3.org/2000/svg" xmlns:xlink="http://www.w3.org/1999/xlink" x="0px" y="0px"
	 width="63.8px" height="63.8px" viewBox="0 0 63.8 63.8" style="enable-background:new 0 0 63.8 63.8;" xml:space="preserve">
<path d="M49.6,61.5c-0.9,0-1.7-0.1-2.4-0.3c-2.2-0.6-19.8-10-26.3-17.3C13.6,37.7,3.3,19.5,2.6,17.2c-0.7-2.4,0.1-4.4,1-6.8
	c1-2.6,6.3-7.4,8-7.9c0.3-0.1,0.6-0.1,0.9-0.1c1.4,0,3.3,0.8,3.7,0.9l0.3,0.1l0.2,0.2C16.7,3.8,19,6,21.4,8.6c4.5,5,5,7,4.9,8.2
	C26.1,19,25,20.6,24.1,22c-0.4,0.6-0.8,1.2-0.9,1.6c-0.4,1.6-0.5,2.5-0.1,3.5c0.4,0.8,3.3,3.9,5.9,6.4l2,2c2.3,2.4,5.3,5.2,6.2,5.7
	c0.6,0.1,1.2,0.2,1.9,0.2c0.6,0,1.1-0.1,1.6-0.2c0,0,0,0,0.1-0.1c2.1-1.5,4.9-3.2,7-3.2c0,0,0,0,0,0c0.6,0,2.2,0,7.7,4.3
	c0.2,0.2,5.1,4,5.8,5.4l0.1,0.1c0.7,1.7,1.2,3.4,0.6,4.8c-0.6,1.4-6.3,7.2-7.2,7.8C53.6,61.1,51.2,61.5,49.6,61.5z M12.5,5.9
	c-1.1,0.6-5.1,4.2-5.7,5.8c-0.8,2.2-1.3,3.4-0.9,4.5c0.6,1.7,10.5,19.5,17.4,25.1l0.1,0.1l0.1,0.1c5.6,6.5,22.7,15.8,24.6,16.4
	c0.4,0.1,0.9,0.2,1.5,0.2c1.6,0,3-0.4,3.3-0.6c0.8-0.6,5.2-5.2,6-6.3c0-0.2,0-0.7-0.6-2c-1.1-1.4-8.7-7.6-10.5-7.9
	c-0.5,0-1.8,0.4-5,2.6c-0.4,0.3-0.7,0.5-1.1,0.5c-0.9,0.2-1.7,0.3-2.6,0.3c-1,0-1.8-0.1-2.6-0.3c-0.5-0.1-1.8-0.3-7.9-6.6l-2-1.9
	c-1.3-1.3-5.8-5.7-6.6-7.4c-1-2.1-0.6-4-0.1-5.8c0.2-0.9,0.8-1.7,1.3-2.6c0.7-1.1,1.5-2.2,1.6-3.5c-0.1-1.3-3.9-5.9-8.3-10.1
	C13.9,6.2,12.9,5.9,12.5,5.9z"/>
</svg>
