<?xml version="1.0" encoding="utf-8"?>
<!-- Generator: Adobe Illustrator 13.0.2, SVG Export Plug-In . SVG Version: 6.00 Build 14948)  -->
<!DOCTYPE svg PUBLIC "-//W3C//DTD SVG 1.1//EN" "http://www.w3.org/Graphics/SVG/1.1/DTD/svg11.dtd">
<svg version="1.1" id="Ebene_1" xmlns="http://www.w3.org/2000/svg" xmlns:xlink="http://www.w3.org/1999/xlink" x="0px" y="0px"
	 width="800px" height="600px" viewBox="0 0 800 600" enable-background="new 0 0 800 600" xml:space="preserve">
<g>
	<path fill="#FFFFFF" d="M496.896,322.695c0.729,0.662,1.559,1.711,1.559,1.711c4.664-0.164,6.807-0.5,11.16-0.807
		c2.533-0.179,6.496-0.451,6.496-0.451c-1.759,3.153-1.793,7.799-0.537,10.387c0.16,0.369,0.391,0.604,0.651,1.01
		c1.539,2.393,4.459,5.568,8.252,9.383c3.824,3.846,7.888,7.734,10.968,11.139c1.606,1.775,3.176,3.72,4.424,5.611
		c3.926,5.951,4.496,15.051,4.496,15.051c-5-1.553-59.199-1.901-73.48-1.283c-5.127,11.277-14.836,23.753-20.514,28.666
		c-9.402,11.55-18.953,39.536-26.966,68.189c-3.971,14.199-7.417,27.976-10.176,38.945c-1.397,5.559-13.651,42.896-13.651,42.896
		l-7.312-20.18c-3.119-9.647-10.884-33.057-10.884-33.057c-8.728-44.148-24.812-81.732-53.852-115.064l-1.469-1.686
		c0,0-0.715-4.576-1.401-7.162c-0.191-0.726-0.407-1.474-0.652-2.181c-8.835-0.973-19.21-0.506-29.432,0.144
		c-11.337,0.724-22.498,1.685-31.453,1.51l-8.215,0.775c0,0,0.315-10.156,14.478-24.789c4.736-4.892,11.586-11.99,15.789-21.175
		l1.565-3.422l3.657-0.885c3.967-0.961,7.571-1.137,10.676-1l0.437-1.432c-0.245-0.574-0.572-1.236-0.974-1.971
		c-1.374-2.504-3.714-5.894-7.151-9.391c-9.755-10.021-26.033-19.784-52.663-24.261l-19.707-3.313c0,0,4.109-2.653,8.508-5.519
		c-10.752-1.304-24.127-2.233-37.866-2.961c-57.346-3.041-82.813-8.353-82.813-8.353s46.684-14.044,72.602-23.258
		c7.339-2.608,14.728-5.418,20.039-7.719l0.232-0.1c-1.649-0.882-3.144-1.691-4.167-2.339l-19.003-12.019l22.372-2.24
		c80.825-8.094,128.469-46.007,156.025-81.651c13.837-17.899,22.293-35.459,28.012-48.205c8.485-18.91,14.624-44.386,14.624-44.386
		s7.522,30.323,19.664,56.993c21.547,47.333,54.274,73.582,84.848,90.817c39.826,22.45,84.121,36.619,110.639,44.415l35.002,10.569
		c0,0-10.256-0.231-22.782-0.494c7.686,3.428,63.209,19.616,63.209,19.616s-15.793,4.604-46.248,6.732
		c-9.479,0.662-21.689,1.384-34.035,2.278c-12.26,0.887-24.656,1.898-34.615,3.007l-1.326,0.15l13.201,6.317l-26.526,3.155
		c-21.033,2.503-45.33,11.384-56.42,23.466c-1.068,1.277-2.027,2.309-3.269,3.795C498.855,319.141,497.602,321.219,496.896,322.695z
		"/>
	<path fill="#FFED00" d="M481.293,224.38c38.029,0,38.846,18.182,34.104,27.288c-8.331,16.008-26.686,25.797-63.022,25.797H421.21
		l-9.65,16.713h-33.38l21.507-37.245l62.446,0.039c13.789,0,18.543-4.231,20.836-7.142c1.109-1.411,3.16-4.958-8.854-4.958
		l-67.492,0.044l11.873-20.533L481.293,224.38z M317.562,277.317h-28.376l11.78-20.402h26.512c20.214,0,31.596-4.459,38.955-17.183
		c13.349-23.075,18.689-32.214,18.689-32.214h32.909l-21.732,38.699C384.172,267.217,357.605,277.317,317.562,277.317z"/>
	<path fill="#1A171B" d="M394.894,245.418l20.378-36.285h-29.226c0,0-4.872,8.337-18.218,31.408
		c-7.78,13.449-19.883,17.989-40.353,17.989h-25.578l-9.917,17.172h25.579C357.451,275.702,383.219,265.638,394.894,245.418z
		 M419.428,225.999l-10.006,17.303l64.693-0.042c11.623,0,12.979,3.941,10.121,7.571c-2.646,3.36-7.904,7.755-22.104,7.755
		l-61.514-0.036l-19.643,34.013h29.65l9.65-16.712h32.096c36.106,0,53.674-9.718,61.594-24.928
		c3.988-7.66,4.59-24.929-32.674-24.929L419.428,225.999z M475.514,354.201h-12.567v-15.873h-6.617v19.869l-12.31-17.494
		c-0.444-0.652-1.038-1.217-1.778-1.662c-0.832-0.506-1.662-0.771-2.463-0.771c-0.802,0-1.604,0.267-2.463,0.771
		c-0.771,0.475-1.365,1.039-1.81,1.662l-11.695,16.223l-4.383-3.645c1.661-0.652,2.967-1.604,3.916-2.818
		c0.92-1.217,1.396-2.551,1.396-4.064c0-2.67-1.158-4.748-3.5-6.172c-2.078-1.274-4.777-1.897-8.131-1.897h-13.499l-4.331,5.549
		h18.455c2.786,0,4.182,0.83,4.182,2.492c0,0.858-0.474,1.481-1.396,1.928c-0.739,0.326-1.661,0.505-2.786,0.505h-18.455v10.918
		h6.645v-5.369h9.138l6.47,5.369h4.27h5.371h2.848l9.644-13.23l5.547,7.684h-8.93l-4.006,5.547h43.12L475.514,354.201z
		 M396.793,338.328h-21.896l-4.272,5.549h8.812v15.842h6.645v-15.842h6.409L396.793,338.328z M371.487,338.328h-19.404
		c-2.402,0-4.42,0.564-6.051,1.662c-1.752,1.188-2.611,2.76-2.611,4.748c0,1.957,0.859,3.529,2.611,4.715
		c1.631,1.1,3.647,1.662,6.051,1.662h10.889c0.712,0,1.335,0.09,1.869,0.297c0.712,0.266,1.067,0.682,1.067,1.217
		c0,0.504-0.355,0.92-1.067,1.217c-0.562,0.236-1.187,0.355-1.869,0.355h-15.309l-4.273,5.518h19.582
		c2.611,0,4.747-0.623,6.47-1.867c1.809-1.307,2.729-3.026,2.729-5.135c0-2.135-0.89-3.887-2.7-5.221
		c-1.721-1.275-3.917-1.898-6.498-1.898h-10.889c-0.801,0-1.216-0.297-1.216-0.859c0-0.563,0.416-0.86,1.216-0.86h15.131
		L371.487,338.328z M342.028,349.988v-11.66h-6.646v11.66c0,1.721-0.651,2.877-1.927,3.5c-0.95,0.477-2.552,0.713-4.778,0.713
		c-2.816,0-4.658-0.178-5.576-0.475c-1.691-0.562-2.553-1.812-2.553-3.738v-11.66h-6.616v11.66c0,6.496,4.451,9.729,13.352,9.729
		h1.393C337.579,359.719,342.028,356.484,342.028,349.988z M291.665,359.719h25.13l-13.38-19.016
		c-0.445-0.652-1.039-1.217-1.78-1.662c-0.832-0.506-1.662-0.771-2.462-0.771c-0.801,0-1.602,0.267-2.463,0.771
		c-0.771,0.475-1.365,1.039-1.81,1.662l-13.707,19.016h8.219l9.642-13.23l5.548,7.685h-8.93L291.665,359.719z M492.836,359.719
		h25.129l-13.379-19.016c-0.445-0.652-1.039-1.217-1.781-1.662c-0.83-0.506-1.662-0.771-2.461-0.771
		c-0.803,0-1.604,0.267-2.465,0.771c-0.771,0.475-1.363,1.039-1.809,1.662l-12.08,16.76v-19.135h-6.615v21.391h4.988h1.627h6.59
		l9.643-13.23l5.55,7.685h-8.933L492.836,359.719z M340.155,368.285c0.516,1.377,0.973,2.863,1.354,4.305
		c0.374,1.408,0.678,2.766,0.908,3.891c29.871,35.002,50.109,75.263,57.16,121.062c2.419-9.123,3.318-19.43,6.388-29.967
		c8.137-27.922,19.039-60.447,31.502-75.146l0.599-0.705l0.719-0.578c3.557-2.861,12.576-14.361,16.438-23.433
		c-13.311-0.188-28.229-0.655-44.745-1.601c-11.943-0.68-56.053,2.271-69.271,2.269L340.155,368.285z M465.477,367.113
		c-3.768,11.254-15.366,26.285-20.618,30.508c-21.705,25.602-40.39,120.992-45.279,132.957
		c-3.156-9.766-10.263-31.105-10.263-31.105c-7.833-45.498-25.922-85.26-55.943-119.721c0,0-1.701-10.965-4.68-13.074
		c-0.897-0.164-1.815-0.309-2.752-0.438c-18.94-2.352-41.892,1.818-59.438,1.479c3.751-8.037,15.966-15.371,25.719-34.217
		c5.74-1.391,10.533-0.725,14.396-0.139l2.875-9.438c0.438-1.358-2.686-9.141-10.567-17.166
		c-11.082-11.382-28.936-21.777-56.918-26.482c0,0,6.445-4.159,5.251-5.951c-23.743-6.272-88.481-5.962-109.208-8.92
		c27.091-7.202,71.004-20.776,77.632-27.785c1.929-2.04-9.904-7.229-13.99-9.813C368.116,211.143,399.579,71.065,399.579,71.065
		c19.908,71.993,62.246,107.67,100.707,129.352c40.623,22.901,85.619,37.267,112.258,45.099c0,0-21.25-0.469-13.291,2.506
		c22.219,8.304,50.894,14.209,61.857,17.385c-5.759,1.141-96.738,5.149-106.877,10.312c-0.921,0.47,2.561,4.614,5.459,6
		c-21.802,2.593-48.439,11.876-61.345,26.063c-1.112,1.338-2.094,2.389-3.377,3.924c-3.406,4.08-5.342,7.729-6.119,10.324
		c-0.383,1.28-0.397,2.014-0.379,2.264l6.229,7.847c5.006,0.258,12.955-0.904,14.426-0.81c-6.684,5.979,26.029,29.461,25.478,36.998
		C527.242,366.041,472.07,366.025,465.477,367.113z M323.662,327.148c1.586-7-2.234-15.484-7.653-22.81l-0.375-0.5
		c-4.237-5.812-9.825-11.258-16.566-16.138h-8.736c9.136,5.591,16.403,12.117,21.462,19.087l0.15,0.192l0.172,0.234
		c5.626,7.607,8.159,14.848,6.619,19.611l-1.122,3.684l-1.406,4.766l11.85-4.766l1.85-0.811c0.939-0.393,0.955-0.393,1.311-0.086
		l0.959,0.896l2.022,1.888c1.497-0.709,5.271-1.347,10.681-1.888c24.566-2.463,82.872-3.01,114.926,0
		c2.013,0.188,3.916,0.392,5.703,0.607l4.439,3.454l1.067-2.883c2.789,0.386,5.209,0.812,7.185,1.275l5.856,1.336l-2.852-3.791
		l-0.781-1.039c-3.623-4.602-1.094-13.604,6.088-22.713c12.582-16.383,38.072-27.125,58.377-31.745
		c0.347-3.743,2.961-6.324,5.191-7.458c7.129-3.632,36.367-5.966,59.299-7.826c-3.531-0.905-8.766-1.952-12.285-2.809
		c-2.199-0.534-7.582-1.942-12.455-3.632c-7.461-2.587-13.723-5.833-5.521-7.604c2.77-0.598,10.908-1.409,10.908-1.409
		c-14.298-2.514-42.109-11.122-49.283-14.121c-14.818-6.196-30.154-13.418-44.953-21.761
		c-34.713-19.568-73.037-49.255-96.208-106.656c-31.521,73.631-90.9,109.985-145.52,125.219c-6.158,1.718-18.956,4.963-35.401,4.674
		c9.521,3.751,10.892,5.528,10.103,8.047c-0.478,1.529-1.837,2.758-3.102,3.689c-1.278,0.94-2.763,1.781-3.95,2.497
		c-5.257,3.17-18.999,8.451-33.28,13.781l4.52,0.095c21.02,0.891,43.619,2.292,56.647,5.734l2.881,0.76c0,0,0.815,0.22,1.877,0.619
		c1.032,0.388,2.39,0.976,3.481,1.747c2.118,1.496,3.023,3.751,0.704,5.861c6.037,1.595,11.716,3.524,16.996,5.731l2.44-4.226
		c-4.188-1.777-8.605-3.377-13.229-4.779c-0.321-2.758-2.193-5.185-4.117-6.543c-1.599-1.129-3.415-1.89-4.572-2.325
		c-1.311-0.492-2.329-0.763-2.329-0.763l-2.895-0.765c-9.479-2.504-23.562-3.945-38.276-4.888c4.994-2.262,9.007-4.296,11.653-5.892
		c1.3-0.783,2.92-1.713,4.319-2.742c1.344-0.989,3.875-3.011,4.855-6.145c0.563-1.801,0.556-3.596-0.114-5.271
		c9.989-1.016,17.698-3.006,22.089-4.23c53.194-14.837,111.219-49.393,144.218-117.939c24.216,52.254,60.71,80.266,93.83,98.936
		c1.785,1.007,3.58,1.998,5.381,2.973c10.562,2.131,17.982,6.243,22.693,11.375c5.834,2.71,11.649,5.262,17.389,7.662
		c5.086,2.126,19.199,6.801,32.35,10.321c-0.944,1.542-1.291,3.552-0.084,5.8c1.101,2.04,3.224,3.307,4.467,3.988
		c1.486,0.815,3.357,1.62,5.369,2.377c-14.651,1.541-27.938,3.503-33.094,6.128c-2.537,1.292-5.537,3.897-6.994,7.75
		c-20.188,5.044-45.221,15.897-58.217,32.82c-5.568,7.077-9.979,16.145-8.457,23.461c-0.809-0.131-1.654-0.256-2.533-0.377
		l-5.588-0.584c-33.629-4.08-111.279-3.289-130.557,0.711l-0.625-0.584c-2.529-2.595-4.878-2.187-7.436-0.959L323.662,327.148z
		 M486.289,214.108c-30.367-17.813-63.034-44.027-86.71-89.577c-34.166,64.271-90.982,97.268-142.917,111.753
		c-3.825,1.066-10.077,2.692-18.119,3.808c-0.102,0.84-0.284,1.667-0.535,2.475c-1.481,4.732-5.172,7.544-6.607,8.6
		c-0.592,0.436-1.221,0.857-1.851,1.259c8.545,0.884,16.388,2.059,22.521,3.679l2.902,0.766c0,0,1.222,0.324,2.788,0.911
		c1.286,0.484,3.558,1.417,5.663,2.903c2.021,1.427,4.132,3.743,5.3,6.671c4.05,1.311,7.954,2.777,11.692,4.383l14.554-25.209
		h32.507c18.572,0,25.306-3.94,29.966-11.998c13.364-23.104,21.72-37.399,21.72-37.399h56.608l-9.471,16.865l54.99-0.003
		C483.01,213.995,484.676,214.034,486.289,214.108z M328.531,319.852c2.803-0.627,5.985-0.203,8.645,1.955
		c22.962-3.647,93.847-4.231,127.379-0.547l4.65,0.402c0.836-7.578,5.213-15.186,9.621-20.801
		c13.506-17.584,38.483-28.625,58.643-33.99c2.14-3.874,5.392-6.509,8.213-7.946c4.232-2.155,12.367-3.774,21.681-5.063
		c-0.172-0.263-0.336-0.536-0.488-0.821c-0.85-1.578-1.262-3.143-1.34-4.635c-12.015-3.386-23.914-7.383-28.529-9.312
		c-3.559-1.488-7.147-3.034-10.75-4.64c2.836,7.05,2.033,14.945-1.645,22.009c-11.005,21.138-34.404,31.387-72.236,31.387h-25.169
		l-9.649,16.712h-57.362l15.762-27.296c-15.759,7.262-35.639,10.436-58.393,10.436h-10.606c4.901,4.096,9.117,8.53,12.55,13.226
		l0.388,0.516C323.79,306.715,327.431,313.24,328.531,319.852z M347.537,373.107c17.205-0.521,53.034-2.76,63.57-2.158
		c13.42,0.766,25.791,1.219,37.106,1.465c-4.063,6.721-9.428,13.238-11.561,14.957l-1.08,0.867l-0.896,1.057
		c-13.267,15.648-24.408,49.303-32.457,76.924c-0.979,3.359-1.723,6.699-2.642,9.982c-8.96-37.871-26.317-71.814-51.775-101.926
		L347.537,373.107z M410.832,375.785c-8.846-0.506-35.649,1.023-54.043,1.818c19.405,24.469,33.702,51.395,42.79,80.731
		c7.826-26.102,18.438-56.879,31.404-72.172l1.194-1.41l1.439-1.155c0.879-0.707,3.1-3.193,5.629-6.57
		C430.363,376.756,420.891,376.359,410.832,375.785z"/>
</g>
</svg>
