<svg style="display: none;">
  <symbol viewBox="0 0 40 40" id="shape-contact">
    <title>contact</title>
    <g>
      <g>
        <g>
          <path fill="#231815" d="M23.5,28.5L23.5,28.5c-0.9,0-1.8-0.3-2.5-0.8c-2.1-1.5-3.5-2.8-4.7-4c-1.2-1.2-2.5-2.6-4-4.7
				c-1.5-2-0.9-4.6,1.4-7c0.7-0.7,1.9-0.7,2.6,0l1.4,1.4c0.3,0.3,0.5,0.8,0.5,1.3c0,0.5-0.2,1-0.5,1.3l-0.6,0.6
				c-0.2,0.2-0.1,0.5,0,0.7c0.7,0.9,1.9,2.2,2.6,2.8c0.7,0.7,1.9,1.9,2.8,2.6c0.2,0.2,0.5,0.2,0.7,0l0.6-0.6c0.7-0.7,1.9-0.7,2.6,0
				l1.4,1.4c0.3,0.3,0.5,0.8,0.5,1.3c0,0.5-0.2,1-0.5,1.3C26.5,27.7,25,28.5,23.5,28.5z M15,12.5c-0.2,0-0.4,0.1-0.6,0.2
				c-2,2-2.4,4.1-1.3,5.7c1.5,2.1,2.7,3.4,3.9,4.6c1.2,1.2,2.5,2.4,4.6,3.9c1.6,1.1,3.7,0.7,5.7-1.3c0.2-0.2,0.2-0.4,0.2-0.6
				c0-0.2-0.1-0.4-0.2-0.6L25.8,23c-0.3-0.3-0.9-0.3-1.2,0L24,23.6c-0.5,0.5-1.3,0.5-2,0c-1-0.7-2.2-2-2.9-2.7c-0.7-0.7-2-2-2.7-2.9
				c-0.5-0.7-0.5-1.5,0-2l0.6-0.6c0.2-0.2,0.2-0.4,0.2-0.6c0-0.2-0.1-0.4-0.2-0.6l-1.4-1.4C15.4,12.6,15.2,12.5,15,12.5z" /> </g>
      </g>
    </g>
  </symbol>
  <symbol viewBox="0 0 193.042 193.041" id="shape-down">
    <title>down</title>
    <g>
      <g>
        <path d="M169.304,89.151c-6.801-1.759-15.093-0.611-22.069-0.499c-8.445,0.136-17.041,0.607-25.335,2.364
			c-0.006-0.009,0.001-0.018-0.006-0.027c-0.072-0.095-0.156-0.178-0.229-0.273c-0.862-12.003-1.052-24.009-1.098-36.016
			c0.025-0.085,0.016-0.163-0.001-0.255c-0.062-17.233,0.171-34.467-0.811-51.693c-0.013-0.228-0.146-0.352-0.24-0.514
			c-0.166-0.729-0.711-1.342-1.687-1.308c-15.908,0.561-31.81-0.561-47.713-0.202c-0.561-1.095-2.458-0.922-2.577,0.299
			c-0.772,0.517-0.704,1.667,0.174,2.084c2.521,21.509-0.718,43.315-0.364,64.847c-0.181,0.09-0.262,0.38-0.043,0.538
			c0.018,0.013,0.034,0.027,0.052,0.04c0.158,8.102,0.822,16.165,2.528,24.156c-0.106-0.027-0.148-0.114-0.268-0.124
			c-0.167-0.014-0.339-0.037-0.508-0.053c-0.005-0.004-0.009-0.009-0.014-0.014c-0.036-0.034-0.068,0.013-0.108,0.001
			c-14.305-1.35-31.629-7.348-45.652-2.788c-0.626,0.203-0.826,0.947-0.379,1.433c0.064,0.069,0.128,0.139,0.191,0.208
			c0.111,0.121,0.268,0.18,0.43,0.194c-0.169,0.239-0.258,0.531-0.062,0.879c19.836,35.174,45.991,69.935,72.951,100.067
			c0.857,0.957,2.007,0.529,2.555-0.308c21.275-14.171,32.078-37.139,45.951-57.792c8.649-12.879,19.503-27.643,25.256-42.054
			c0.156-0.391,0.052-0.716-0.133-0.998C170.57,90.592,170.311,89.412,169.304,89.151z M73.588,33.961
			c0.055-2.605,0.063-5.202,0.006-7.787c11.532,15.4,29.574,25.526,43.216,38.997c0.082,2.77,0.108,5.543,0.243,8.309
			C105.002,58.471,87.967,46.73,73.588,33.961z M117.143,75.598c0.04,0.746,0.107,1.49,0.151,2.236
			C105.78,63.436,87.366,53.633,73.528,42.018c-0.085-0.071-0.177-0.08-0.267-0.086c0.112-2.253,0.248-4.511,0.308-6.755
			C87.797,48.889,102.446,62.434,117.143,75.598z M100.771,48.793c-9.569-7.303-19.808-14.282-27.201-23.94
			c-0.012-0.015-0.03-0.012-0.042-0.025c-0.055-1.794-0.143-3.583-0.268-5.364c12.415,15.054,27.698,27.768,43.43,39.243
			c0.021,1.291,0.014,2.583,0.045,3.873C112.692,57.041,106.011,52.793,100.771,48.793z M116.647,52.614
			c0.01,1.321-0.001,2.642,0.017,3.963c-15.374-11.834-30.335-23.966-43.511-38.26c-0.172-2.157-0.433-4.299-0.732-6.433
			C84.653,27.596,101.353,39.909,116.647,52.614z M72.339,11.165c-0.301-2.036-0.728-4.049-1.175-6.058
			c9.426,8.738,19.686,16.506,28.894,25.491c4.233,4.132,8.854,8.077,13.4,11.864c1.082,0.901,1.994,2.401,3.213,3.228
			c-0.002,1.511-0.041,3.022-0.034,4.532C102.699,36.358,85.138,26.405,72.339,11.165z M73.216,42.914
			c14.36,13.012,30.426,23.614,44.238,37.267c0.131,1.996,0.239,3.994,0.406,5.987c-13.102-14.995-30.44-25.766-44.812-39.541
			C73.122,45.387,73.152,44.154,73.216,42.914z M117.298,4.581c-0.041,1.792-0.062,3.592-0.09,5.389
			c-2.677-2.214-6.014-3.821-9.217-5.292C111.094,4.692,114.196,4.676,117.298,4.581z M105.281,4.649
			c0.015,0.009,0.012,0.026,0.028,0.035c4.141,2.17,7.907,4.723,11.868,7.147c-0.016,1.009-0.033,2.016-0.051,3.024
			c-1.055-0.453-2.327-1.34-2.835-1.63c-2.028-1.156-3.977-2.459-5.921-3.752c-2.367-1.575-4.68-3.228-7.004-4.865
			C102.671,4.631,103.977,4.634,105.281,4.649z M91.041,4.333c0.023,0.03-0.016,0.073,0.027,0.095
			c4.798,2.439,9.18,5.647,13.515,8.815c3.694,2.7,7.399,6.269,11.661,8.034c0.507,0.21,0.959-0.586,0.539-0.926
			c-7.334-5.942-15.98-11.982-24.604-15.971c2.343,0.085,4.686,0.118,7.029,0.173c3.854,2.709,7.628,5.531,11.517,8.192
			c1.164,0.797,4.104,3.316,6.376,3.748c-0.065,4.085-0.149,8.162-0.204,12.249c-8.65-9.807-21.254-18.616-32.628-24.684
			C86.526,4.159,88.783,4.248,91.041,4.333z M83.922,4.044c-0.14,0.087-0.221,0.253-0.035,0.358
			c12.493,7.072,21.991,17.145,32.799,26.332c0.056,0.047,0.117,0.027,0.176,0.056c-0.025,2.089-0.086,4.172-0.104,6.262
			c-2.283-0.964-5.371-4.139-6.673-5.165c-4.302-3.392-8.501-6.915-12.682-10.456c-6.676-5.653-13.406-11.329-19.704-17.405
			c-0.218-0.211-0.547,0.117-0.333,0.332c7.386,7.448,15.35,14.38,23.236,21.287c3.811,3.339,7.648,6.673,11.673,9.755
			c1.129,0.864,2.82,2.513,4.467,3.049c-0.013,1.656-0.048,3.311-0.054,4.966c-1.306-1.982-4.524-4.086-5.867-5.228
			c-4.193-3.564-8.361-7.252-12.333-11.057c-8.629-8.267-18.611-14.97-27.503-22.948c-0.057-0.244-0.083-0.493-0.143-0.736
			C75.201,3.644,79.561,3.85,83.922,4.044z M98.708,189.854c-26.927-30.294-50.807-64.896-73.655-98.321
			c-0.127-0.185-0.298-0.255-0.467-0.314c0.396-0.167,0.792-0.334,1.188-0.501c0.063-0.017,0.065-0.079,0.082-0.13
			c0.512,1.135,1.458,1.47,2.812,1.051c13.607,16.945,24.299,36.012,38.206,52.702c11.769,14.123,27.476,24.824,36.028,41.5
			c0.016,0.031,0.051,0.03,0.07,0.057C101.56,187.226,100.192,188.594,98.708,189.854z M103.887,185.048
			c-5.833-13.833-18.411-24.132-28.74-34.574c-17.496-17.688-29.638-39.79-45.318-59.023c1.798,0.017,3.594,0.086,5.385,0.246
			c0.248,0.016,0.493,0.068,0.742,0.088c18.755,33.381,48.075,59.425,72.41,88.638C106.894,181.984,105.436,183.56,103.887,185.048z
			 M109.205,179.553c-22.791-30.438-51.74-55.396-72.209-87.646c1.851,0.178,3.695,0.439,5.535,0.717
			c7.564,15.453,19.921,27.658,31.875,39.808c13.48,13.7,26.323,28.062,38.347,43.059
			C111.583,176.854,110.426,178.233,109.205,179.553z M113.709,174.395c-21.792-27.632-53.15-50.849-70.115-81.622
			c1.656,0.262,3.307,0.554,4.955,0.845c20.285,27.8,46.188,50.806,67.721,77.595C115.418,172.276,114.585,173.354,113.709,174.395z
			 M117.167,170.1c-20.816-26.8-46.05-49.702-67.189-76.234c1.41,0.254,2.835,0.521,4.264,0.778
			c-0.123,0.123-0.16,0.316,0.014,0.468c23.892,20.74,38.229,54.76,66.134,70.605C119.307,167.171,118.287,168.678,117.167,170.1z
			 M121.167,164.656c-26.41-19.205-40.887-49.558-66.214-69.885c2.592,0.457,5.207,0.844,7.821,1.032
			c20.684,21.401,39.432,44.72,60.743,65.491C122.727,162.409,121.976,163.556,121.167,164.656z M124.391,160.042
			c-20.094-21.369-39.118-43.962-60.377-64.188c1.874,0.083,3.746,0.082,5.605-0.143c0.487-0.059,0.816-0.281,1.052-0.559
			c9.759,11.024,18.94,22.546,28.594,33.663c8.148,9.383,17.328,20.175,28.601,26.081
			C126.711,156.614,125.577,158.348,124.391,160.042z M128.812,153.49c-22.614-16.492-37.874-39.75-57.783-59.063
			c0.034-0.216,0.03-0.438-0.02-0.654c0.634,0.023,1.286-0.331,1.202-1.073c-0.203-1.799-0.358-3.607-0.474-5.422
			c17.848,22.243,38.534,42.554,59.293,62.021c0.116,0.109,0.242,0.121,0.365,0.14C130.525,150.784,129.698,152.155,128.812,153.49z
			 M132.016,148.464c-0.024-0.035-0.01-0.073-0.042-0.108c-19.925-21.106-41.138-40.765-60.305-62.601
			c-0.128-2.466-0.167-4.948-0.171-7.437c19.787,23.053,44.299,41.441,63.961,64.678
			C134.311,144.819,133.183,146.651,132.016,148.464z M136.323,141.625c-18.714-24.272-44.287-42.098-64.827-64.721
			c0.01-1.695,0.048-3.395,0.1-5.097c14.343,11.363,26.074,25.38,39.317,37.998c7.255,6.911,15.464,12.71,22.773,19.569
			c1.17,1.099,2.231,2.36,3.328,3.528c0.944,1.008,1.884,2.022,2.817,3.042C138.656,137.838,137.511,139.731,136.323,141.625z
			 M141.101,133.889c-5.931-10.199-20.742-18.264-28.835-25.438c-13.92-12.34-25.455-26.901-40.631-37.69
			c0.091-2.638,0.229-5.284,0.382-7.934c18.118,27.224,46.06,47.046,72.129,66.13C143.127,130.602,142.118,132.243,141.101,133.889z
			 M146.92,124.463c-0.618,1.019-1.261,2.041-1.891,3.062c-25.705-19.984-53.86-39.058-72.88-65.985
			c-0.016-0.022-0.04-0.019-0.058-0.037c0.091-1.512,0.193-3.026,0.292-4.54c14.177,14.425,29.297,27.879,44.386,41.335
			c9.09,8.107,19.034,20.862,30.252,25.875c0.022,0.012,0.04-0.003,0.062,0.005C147.032,124.27,146.975,124.375,146.92,124.463z
			 M147.674,123.159c-0.016-0.014-0.013-0.034-0.031-0.047c-11.973-8.675-22.545-20.062-33.688-29.802
			c-13.876-12.127-27.521-24.508-41.281-36.765c-0.089-0.079-0.179-0.031-0.262,0.007c0.191-2.903,0.382-5.805,0.563-8.707
			c13.628,14.962,31.252,25.69,45.069,40.556c0.086,0.953,0.143,1.908,0.237,2.86c0.048,0.486,0.271,0.85,0.563,1.121
			c-0.184,0.78,0.195,1.722,1.145,1.608c0.871-0.105,1.742-0.173,2.613-0.266c9.134,7.712,18.213,16.561,28.622,22.458
			C149.957,118.791,148.769,121.207,147.674,123.159z M151.714,115.176c-5.861-4.033-11.499-8.308-17-12.848
			c-3.55-2.93-7.157-6.155-11.082-8.707c2.154-0.215,4.311-0.324,6.465-0.476c6.647,7.546,14.511,13.964,22.737,19.725
			C152.457,113.646,152.079,114.423,151.714,115.176z M153.37,111.775c-7.782-5.938-15.554-11.749-22.491-18.688
			c2.379-0.16,4.76-0.288,7.143-0.4c4.979,5.667,11.463,10.06,17.928,13.993C155.061,108.372,154.199,110.087,153.37,111.775z
			 M156.599,105.466c-5.931-4.211-12.301-7.594-17.448-12.839c1.946-0.085,3.896-0.131,5.848-0.178
			c2.296,2.395,4.618,4.751,7.159,6.893c1.663,1.402,3.59,2.99,5.676,3.938C157.419,104.006,157,104.719,156.599,105.466z
			 M158.665,101.806c-2.144-1.312-4.34-2.495-6.358-4.095c-2.09-1.655-4.049-3.471-5.987-5.303c0.305-0.006,0.609-0.023,0.914-0.028
			c1.856-0.03,3.806,0.046,5.779,0.138c2.319,2.258,4.894,4.451,7.596,6.217C159.95,99.718,159.298,100.737,158.665,101.806z
			 M161.639,97.273c-2.14-1.595-4.365-3.083-6.531-4.659c3.608,0.172,7.269,0.309,10.724-0.087
			C164.38,93.774,162.987,95.418,161.639,97.273z" /> </g>
    </g>
  </symbol>
  <symbol viewBox="0 0 50 50" id="shape-home">
    <title>home</title>
    <path id="home-shape-1" d="M40.348,23.401l-15-10.909c-0.351-0.256-0.826-0.256-1.177,0l-15,10.909c-0.446,0.324-0.545,0.95-0.22,1.396
	c0.325,0.447,0.949,0.544,1.397,0.221l1.974-1.436v13.718c0,0.553,0.448,1,1,1h8.075c0.552,0,1-0.447,1-1v-9.393h4.725v9.393
	c0,0.553,0.448,1,1,1h8.075c0.552,0,1-0.447,1-1V23.583l1.974,1.436c0.178,0.129,0.384,0.191,0.587,0.191
	c0.309,0,0.614-0.143,0.81-0.412C40.894,24.352,40.794,23.726,40.348,23.401z M35.197,36.301h-6.075v-9.393c0-0.553-0.448-1-1-1
	h-6.725c-0.552,0-1,0.447-1,1v9.393h-6.075V22.128l10.438-7.591l10.438,7.591V36.301z" /> </symbol>
  <symbol viewBox="0 0 690.35 317.146" id="shape-logo">
    <title>logo</title>
    <g>
      <path id="logo-shape-1" fill-rule="evenodd" clip-rule="evenodd" d="M602.557,53.646c-3.26-0.194-6.523-0.321-9.775-0.596
		c-14.752-1.249-29.486-2.718-44.252-3.772c-19.297-1.379-38.623-2.362-57.924-3.676c-8.93-0.607-17.838-1.542-26.744-2.437
		c-2.652-0.266-3.729,1.098-4.004,3.344c-0.898,7.317,2.045,10.237,9.285,12.1c8.168,2.101,16.131,5.153,23.982,8.29
		c7.48,2.989,14.893,6.265,22,10.045c13.123,6.981,26.84,12.935,38.508,22.498c8.217,6.736,16.955,12.832,25.307,19.41
		c14.043,11.064,26.217,24.008,37.387,37.919c3.482,4.336,6.555,9.041,10.369,13.052c1.91,2.009,4.986,3.026,7.678,4.151
		c4.002,1.672,8.223,2.835,12.18,4.6c3.832,1.711,4.152,4.679,1.66,8.104c-1.207,1.663-2.223,3.729-2.479,5.722
		c-0.148,1.159,1.172,2.745,2.205,3.76c1.334,1.312,3.607,1.908,4.494,3.397c4.303,7.238,8.371,14.622,12.324,22.059
		c1.594,2.999,2.957,6.183,3.941,9.429c1.533,5.061,7.342,6.8,11.422,3.184c3.748-3.321,6.086-2.667,8.314,1.99
		c4.9,10.24-0.047,18.704-10.068,20.757c-7.293,1.493-14.721,2.667-22.141,3.137c-12.809,0.809-25.658,1.061-38.494,1.348
		c-7.111,0.158-14.23-0.096-21.348-0.146c-3.084-0.022-4.697,0.549-5.512,4.532c-1.404,6.887-3.824,13.767-7.035,20.026
		c-3.037,5.92-6.934,11.785-11.738,16.307c-5.346,5.03-11.953,8.672-19.225,11.08c-7.627,2.525-15.227,3.951-23.254,3.885
		c-12.416-0.104-23.221-4.434-33.123-11.586c-8.012-5.79-14.348-13.194-20.25-20.996c-1.197-1.581-1.891-3.571-2.68-5.431
		c-2.686-6.326-7.639-9.504-14.295-9.513c-17.27-0.023-34.539,0.206-51.807,0.404c-9.219,0.105-18.434,0.473-27.648,0.515
		c-26.869,0.121-53.736,0.092-80.604,0.205c-40.951,0.172-81.901,0.48-122.853,0.563c-7.193,0.015-9.022,3.157-12.34,8.676
		c-3.449,5.735-8.126,10.774-12.567,15.854c-2.558,2.926-5.507,5.609-8.637,7.918c-10.727,7.91-23.082,11.995-36.188,11.968
		c-18.391-0.04-34.633-6.257-47.368-20.25c-6.741-7.408-10.684-16.093-12.825-25.744c-0.954-4.302-2.232-5.104-6.609-4.962
		c-5.118,0.167-10.38,0.379-14.901-2.457c-2.296-1.44-4.351-3.563-5.902-5.803c-1.254-1.81-2.411-2.707-4.587-2.533
		c-1.908,0.152-3.853-0.129-5.754,0.063c-5.458,0.547-7.056-1.611-8.395-8.165c-1.458-7.135,2.816-10.293,8.315-12.467
		c5.679-2.244,8.169-6.64,9.818-12.14c3.904-13.022,10.104-24.991,18.215-35.841c9.063-12.122,20.424-21.732,33.328-29.739
		c22.178-13.761,46.588-21.371,71.843-26.457c11.562-2.328,23.428-3.287,35.201-4.387c11.369-1.061,22.796-1.494,34.197-2.223
		c7.989-0.51,12.037-5.85,15.621-12.215c6.036-10.722,12.417-21.25,18.756-31.799c6.314-10.509,15.808-17.179,27.045-21.421
		c7.729-2.917,15.621-5.428,23.51-7.896c3.343-1.045,3.66-3.632,3.497-6.187c-0.173-2.717-2.408-2.989-4.799-2.979
		c-16.793,0.073-33.588,0.04-50.382,0.04c-29.591,0-59.183-0.002-88.774,0c-2.153,0-4.56,0.375-4.829-2.782
		c-0.261-3.064,1.832-4.288,4.319-4.669c10.153-1.556,20.302-3.205,30.505-4.354c11.088-1.25,22.229-2.051,33.356-2.918
		c7.721-0.601,15.453-1.098,23.189-1.43c8.711-0.374,17.431-0.645,26.149-0.73c30.482-0.299,60.967-0.608,91.45-0.69
		c14.266-0.038,28.539,0.224,42.795,0.737c12.885,0.463,25.748,1.455,38.623,2.209c5.139,0.3,10.285,0.504,15.418,0.894
		c13.813,1.049,27.629,2.038,41.418,3.321c8.307,0.773,16.57,2.023,24.844,3.119c5.219,0.69,8.502-1.012,11.088-6.062
		C539.643,15.8,547.813,6.885,558.76,0.706c2.256-1.272,3.875-0.704,5.475,0.74c1.58,1.43,2.01,3.097,0.748,5.091
		c-2.662,4.206-5.393,8.386-7.764,12.755c-2.006,3.692-3.783,7.553-5.195,11.505c-0.82,2.295,2.123,6.433,5.123,7.345
		c3.852,1.173,7.854,1.839,11.771,2.808c7.221,1.787,14.359,4.004,21.662,5.331C595.549,47.184,599.229,49.624,602.557,53.646z
		 M587.543,171.901c0.291-0.21,0.582-0.42,0.875-0.63c-1.629-2.759-2.969-5.747-4.936-8.24
		c-10.133-12.846-21.941-24.138-34.605-34.355c-12.422-10.023-25.326-19.572-38.734-28.218
		c-18.328-11.814-38.244-20.446-59.152-26.924c-20.977-6.496-42.336-8.813-64.152-8.016c-4.551,0.168-5.723,1.409-5.803,6.129
		c-0.098,5.638-0.33,11.283-0.152,16.915c0.398,12.538,1.156,25.065,1.49,37.605c0.217,8.107,1.848,10.117,9.846,10.041
		c6.576-0.063,13.152-0.677,19.721-0.577c18.305,0.278,36.631,0.373,54.904,1.367c13.412,0.729,26.818,2.336,40.105,4.355
		c9.928,1.51,19.729,4.047,29.459,6.608c7.748,2.041,15.484,4.369,22.895,7.385c6.646,2.704,12.939,6.35,19.199,9.914
		C581.729,167.101,584.543,169.665,587.543,171.901z M454.746,220.981c0.316-0.076,0.633-0.154,0.947-0.231
		c6.029-6.013,11.684-12.474,18.188-17.921c7.279-6.1,15.016-11.797,23.121-16.736c10.115-6.162,21.451-9.571,33.363-9.072
		c17.348,0.726,33.344,5.811,47.26,16.716c9.273,7.267,17.092,15.882,24.543,24.909c0.822,0.997,2.393,2.271,3.35,2.081
		c2.141-0.427,2.549-2.417,1.723-4.304c-1.848-4.214-3.389-8.664-5.883-12.477c-7.85-11.999-18.518-21.089-30.652-28.611
		c-18.764-11.634-38.896-14.403-60.035-8.856c-10.234,2.687-19.801,7.524-28.07,14.14c-5.623,4.498-10.828,9.818-15.127,15.587
		c-4.697,6.299-8.201,13.498-12.047,20.404C454.752,217.817,454.951,219.512,454.746,220.981z M186.377,245.085
		c0.548-0.148,1.096-0.298,1.644-0.446c0.302-1.799,1.096-3.68,0.807-5.377c-0.652-3.825-1.349-7.775-2.894-11.295
		c-6.912-15.744-16.606-29.479-30.021-40.473c-12.836-10.52-27.565-15.742-44.043-16.275c-10.46-0.339-20.673,1.03-30.536,4.668
		c-2.767,1.021-6.059,1.337-8.25,3.066c-5.938,4.687-12.987,7.753-18.464,13.099c-2.182,2.13-5.354,3.304-7.342,5.558
		c-3.015,3.418-5.443,7.362-7.985,11.174c-0.449,0.673-0.233,1.788-0.325,2.699c0.951-0.165,2.188-0.003,2.81-0.545
		c9.291-8.097,20.006-13.899,31.044-19.094c11.578-5.447,23.792-8.457,36.672-8.802c7.118-0.19,13.747,2.005,20.391,3.802
		c5.234,1.415,10.375,3.746,15.031,6.547c3.896,2.343,6.938,6.066,10.519,8.983c10.651,8.677,18.632,19.482,25.233,31.387
		C182.717,237.455,184.482,241.306,186.377,245.085z M324.016,136.322c0.002-0.007,0.002-0.015,0.004-0.022
		c11.607,0,23.232,0.4,34.816-0.122c10.189-0.459,15.596-3.719,15.236-15.488c-0.244-7.959,0.084-15.934,0.076-23.902
		c-0.006-7.987,0.066-15.982-0.262-23.959c-0.117-2.896-1.975-5.064-5.26-5.302c-9.385-0.676-18.762-1.604-28.16-1.926
		c-7.098-0.244-14.23,0.15-21.334,0.521c-7.582,0.398-15.287,0.397-22.686,1.852c-9.437,1.854-18.955,4.182-27.807,7.834
		c-6.964,2.873-13.879,7.16-19.164,12.465c-5.901,5.923-10.091,13.603-14.743,20.704c-4.986,7.609-9.611,15.457-14.459,23.16
		c-1.828,2.904-1.162,4.458,2.37,4.671c3.16,0.188,6.338,0.218,9.504,0.145c5.606-0.129,11.208-0.566,16.813-0.556
		c8.805,0.019,17.61,0.403,26.416,0.435c5.444,0.02,10.889-0.441,16.336-0.484C302.48,136.264,313.248,136.322,324.016,136.322z
		 M137.136,252.95c1.473-17.535-15.155-33.7-30.815-33.526c-20.513,0.229-35.083,12.612-34.406,34.709
		c0.596,19.461,13.94,31.435,30.504,32.16C122.636,287.18,137.523,271.724,137.136,252.95z M498.707,254.978
		c0.514,18.813,13.586,32.834,31.432,33.069c19.535,0.258,33.248-14.479,33.445-33.11c0.205-19.344-14.123-33.592-32.971-33.609
		C512.256,221.311,498.826,236.502,498.707,254.978z M384.787,42.305c6.434,0.625,12.713,1.074,18.945,1.884
		c6.568,0.854,13.111,1.934,19.625,3.131c7.455,1.37,14.85,3.078,22.313,4.398c1.465,0.259,4.246-0.239,4.473-0.984
		c0.588-1.912,0.604-4.384-0.174-6.193c-0.521-1.214-2.754-2.31-4.273-2.382c-12.023-0.568-24.064-0.807-36.09-1.302
		c-5.227-0.214-10.436-1.054-15.656-1.109C390.846,39.713,386.926,37.928,384.787,42.305z M373.885,42.057
		c0.033-0.545,0.066-1.09,0.102-1.635c-1.398-0.324-2.787-0.891-4.191-0.934c-9.494-0.287-18.99-0.527-28.484-0.658
		c-10.65-0.146-21.301-0.205-31.949-0.158c-0.857,0.004-2.277,0.991-2.446,1.743c-0.36,1.612-0.149,3.38,0.085,5.049
		c0.02,0.138,1.996,0.07,3.053-0.024c1.521-0.135,3.027-0.449,4.549-0.572c6.998-0.564,13.992-1.283,21.004-1.583
		c9.977-0.427,19.965-0.519,29.947-0.792C368.332,42.416,371.107,42.205,373.885,42.057z" />
      <path fill-rule="evenodd" clip-rule="evenodd" d="M467.734,133.031c-8.123,0-16.25,0.152-24.369-0.035
		c-12.547-0.289-25.09-0.783-37.633-1.249c-3.328-0.123-6.697-0.175-9.959-0.756c-9.004-1.603-9.844-6.046-10.105-12.688
		c-0.492-12.494-0.943-25.027,0.572-37.516c0.834-6.856,2.619-8.573,9.441-8.574c17.818-0.002,35.395,2.122,52.619,6.614
		c5.506,1.435,10.754,3.937,16.025,6.173c5.061,2.145,10.039,4.5,14.984,6.903c8.5,4.131,14.461,10.657,17.027,19.772
		c1.123,3.98,1.588,8.299,1.469,12.438c-0.143,4.967-4.93,8.378-9.963,8.266c-6.699-0.149-13.404-0.037-20.107-0.037
		C467.736,132.572,467.734,132.802,467.734,133.031z M457.324,127.648c-0.002-0.143-0.002-0.285-0.004-0.43
		c6.826,0,13.654,0.01,20.482-0.002c7.332-0.014,11.484-4.233,10.035-11.276c-0.611-2.978-2.885-6.177-5.326-8.116
		c-8.684-6.904-18.732-11.439-28.943-15.707c-18.271-7.633-37.357-10.274-56.965-10.134c-3.09,0.022-5.936,2.515-6.354,5.489
		c-1.584,11.219-0.754,22.36,1.533,33.387c0.439,2.117,1.295,4.432,4.467,4.654c7.809,0.545,15.584,1.82,23.395,2.04
		C432.193,127.908,444.764,127.648,457.324,127.648z" />
      <path fill-rule="evenodd" clip-rule="evenodd" d="M292.102,133.106c-12.595,0-25.19,0.056-37.784-0.033
		c-3.844-0.027-7.702-0.304-11.525-0.729c-5.407-0.6-9.219-6.321-7.813-12.007c4.383-17.722,13.857-31.952,30.6-39.861
		c7.428-3.509,15.862-5.349,24.044-6.692c11.432-1.877,23.036-2.863,34.604-3.709c12.422-0.906,24.826,0.074,37.096,2.158
		c4.297,0.73,8.473,2.955,8.15,9.238c-0.574,11.222-0.479,22.475-0.867,33.708c-0.121,3.529-1.041,7.025-1.322,10.559
		c-0.23,2.887-2.281,4.009-4.424,4.363c-5.949,0.985-11.959,2.09-17.961,2.187c-17.596,0.283-35.197,0.101-52.799,0.101
		C292.102,132.629,292.102,132.867,292.102,133.106z M322.189,126.877c8.354,0,16.709,0.145,25.059-0.046
		c6.428-0.146,12.014-3.568,12.906-8.066c1.945-9.777,3.561-19.627,2.98-29.669c-0.506-8.715-4.143-12.146-12.748-12.149
		c-3.383-0.002-6.764,0.023-10.146,0.008c-13.773-0.064-27.458,0.082-41.021,3.455c-15.101,3.755-29.872,8.265-41.089,19.48
		c-5.217,5.216-10.282,11.489-9.053,20.203c0.51,3.614,2.331,5.903,5.982,6.062c5.629,0.246,11.257,0.66,16.887,0.691
		C288.693,126.938,305.439,126.878,322.189,126.877z" />
      <path fill-rule="evenodd" clip-rule="evenodd" d="M80.853,252.119c0.296-13.936,11.07-24.977,24.664-24.417
		c12.635,0.521,24.126,11.157,23.647,25.808c-0.437,13.346-11.781,24.133-25.054,23.904
		C91.619,277.198,80.575,265.188,80.853,252.119z M84.202,253.813c0.54,12.088,9.242,20.353,20.888,19.896
		c13.803-0.541,20.832-10.364,20.702-21.039c-0.149-12.3-9.88-21.043-21.807-20.756C92.398,232.192,83.747,241.911,84.202,253.813z" />
      <path fill-rule="evenodd" clip-rule="evenodd" d="M555.852,254.021c0.203,13.961-10.033,25.124-24.033,25.459
		c-13.625,0.326-24.127-9.896-24.949-23.515c-0.896-14.835,9.705-26.452,23.67-27.083
		C545.098,228.224,555.639,239.906,555.852,254.021z M551.492,254.406c-0.1-12.199-9.309-20.33-20.426-20.374
		c-14.561-0.058-21.537,11.198-20.094,23.722c1.207,10.449,8.43,18.442,20.262,18.09
		C543.293,275.485,552.02,265.918,551.492,254.406z" />
      <path fill-rule="evenodd" clip-rule="evenodd" d="M104.558,260.927c-4.702-0.066-8.521-4.075-8.473-8.896
		c0.043-4.417,4.142-8.161,8.807-8.043c4.362,0.109,8.162,3.978,8.197,8.344C113.128,257.316,109.477,260.996,104.558,260.927z" />
      <path fill-rule="evenodd" clip-rule="evenodd" d="M531.246,263.143c-4.391,0.006-8.605-4.25-8.674-8.757
		c-0.076-4.777,3.725-8.499,8.688-8.508c5.43-0.01,9.07,3.308,9.189,8.371C540.564,259.18,536.469,263.136,531.246,263.143z" /> </g>
  </symbol>
  <symbol viewBox="0 0 50 50" id="shape-menu">
    <title>menu</title>
    <path id="menu-shape-1" d="M8.667,15h30c0.552,0,1-0.447,1-1s-0.448-1-1-1h-30c-0.552,0-1,0.447-1,1S8.114,15,8.667,15z" />
    <path id="menu-shape-2" d="M8.667,37h30c0.552,0,1-0.447,1-1s-0.448-1-1-1h-30c-0.552,0-1,0.447-1,1S8.114,37,8.667,37z" />
    <path id="menu-shape-3" d="M8.667,26h30c0.552,0,1-0.447,1-1s-0.448-1-1-1h-30c-0.552,0-1,0.447-1,1S8.114,26,8.667,26z" /> </symbol>
  <symbol viewBox="0 0 50 50" id="shape-mute">
    <title>mute</title>
    <path d="M35.735,24.4l4.542-4.548c0.39-0.392,0.39-1.024-0.001-1.415c-0.391-0.389-1.024-0.39-1.415,0.001l-4.545,4.552
	l-4.545-4.552c-0.391-0.391-1.024-0.39-1.415-0.001c-0.391,0.391-0.391,1.023-0.001,1.415l4.542,4.548l-4.542,4.547
	c-0.39,0.392-0.39,1.024,0.001,1.415c0.195,0.194,0.451,0.292,0.707,0.292s0.513-0.098,0.708-0.293l4.545-4.551l4.545,4.551
	c0.195,0.195,0.452,0.293,0.708,0.293s0.512-0.098,0.707-0.292c0.391-0.391,0.391-1.023,0.001-1.415L35.735,24.4z" />
    <path d="M22.642,38.06c0.152,0,0.306-0.035,0.448-0.105c0.338-0.17,0.552-0.516,0.552-0.895v-24c0-0.379-0.214-0.725-0.552-0.895
	c-0.341-0.168-0.744-0.132-1.047,0.094l-8.2,6.134H9.569c-0.553,0-1,0.447-1,1v11.334c0,0.553,0.447,1,1,1h4.273l8.2,6.134
	C22.219,37.992,22.43,38.06,22.642,38.06z M21.642,35.063l-6.867-5.137c-0.173-0.129-0.383-0.199-0.599-0.199h-3.606v-9.334h3.606
	c0.216,0,0.426-0.07,0.599-0.199l6.867-5.137V35.063z" /> </symbol>
  <symbol viewBox="0 0 50 50" id="shape-photo">
    <title>photo</title>
    <path id="photo-shape-1" d="M35.628,19.066l-0.713-4.242c-0.081-0.481-0.498-0.834-0.986-0.834H20.93c-0.488,0-0.905,0.353-0.986,0.835l-0.711,4.241
	h-6.801c-0.552,0-1,0.447-1,1V36.99c0,0.553,0.448,1,1,1h30c0.552,0,1-0.447,1-1V20.066c0-0.553-0.448-1-1-1H35.628z M41.432,35.99
	h-28V21.066h6.647c0.488,0,0.905-0.353,0.986-0.835l0.711-4.241h11.307l0.713,4.242c0.081,0.481,0.498,0.834,0.986,0.834h6.65V35.99
	z" />
    <path id="photo-shape-2" d="M27.432,21.384c-3.309,0-6,2.671-6,5.953s2.691,5.953,6,5.953s6-2.671,6-5.953S30.741,21.384,27.432,21.384z M27.432,31.29
	c-2.206,0-4-1.773-4-3.953s1.794-3.953,4-3.953s4,1.773,4,3.953S29.638,31.29,27.432,31.29z" /> </symbol>
  <symbol viewBox="0 0 50 50" id="shape-star">
    <title>star</title>
    <path d="M15.868,28.234l-2.33,9.757c-0.094,0.391,0.057,0.8,0.38,1.038c0.324,0.237,0.757,0.26,1.104,0.054
	l8.762-5.203l8.758,5.203c0.158,0.094,0.335,0.141,0.511,0.141c0.209,0,0.417-0.065,0.593-0.194c0.323-0.238,0.474-0.647,0.38-1.038
	l-2.33-9.757l7.734-6.554c0.309-0.261,0.43-0.683,0.306-1.068c-0.123-0.385-0.467-0.658-0.87-0.691L28.665,19.08l-3.963-9.25
	c-0.157-0.368-0.519-0.606-0.919-0.606s-0.762,0.238-0.919,0.606l-3.966,9.25L8.7,19.921c-0.403,0.033-0.747,0.306-0.87,0.691
	c-0.124,0.385-0.003,0.807,0.306,1.068L15.868,28.234z M19.662,21.023c0.369-0.03,0.691-0.262,0.837-0.603l3.284-7.659l3.28,7.658
	c0.146,0.341,0.468,0.573,0.837,0.603l8.394,0.692l-6.361,5.391c-0.288,0.243-0.414,0.628-0.326,0.995l1.924,8.055l-7.236-4.299
	c-0.314-0.188-0.707-0.188-1.021,0l-7.24,4.3l1.924-8.056c0.088-0.367-0.038-0.752-0.326-0.995l-6.359-5.391L19.662,21.023z" /> </symbol>
  <symbol viewBox="0 0 50 50" id="shape-unmute">
    <title>unmute</title>
    <path d="M37.341,37.567c0.264,0,0.526-0.104,0.724-0.31c2.852-2.987,4.487-7.332,4.487-11.922c0-4.589-1.636-8.934-4.486-11.921
	c-0.381-0.399-1.016-0.414-1.414-0.033c-0.399,0.382-0.414,1.015-0.033,1.414c2.5,2.619,3.934,6.461,3.934,10.54
	c0,4.08-1.434,7.922-3.935,10.541c-0.381,0.399-0.366,1.032,0.033,1.414C36.844,37.476,37.093,37.567,37.341,37.567z" />
    <path d="M34.016,34.482c0.252,0,0.504-0.095,0.698-0.284c2.225-2.172,3.501-5.401,3.501-8.861c0-3.461-1.276-6.69-3.501-8.862
	c-0.395-0.385-1.027-0.378-1.414,0.018c-0.386,0.396-0.378,1.028,0.018,1.414c1.841,1.797,2.897,4.506,2.897,7.431
	s-1.057,5.633-2.897,7.43c-0.396,0.386-0.403,1.019-0.018,1.414C33.496,34.382,33.756,34.482,34.016,34.482z" />
    <path d="M30.084,29.571c-0.424,0.354-0.479,0.985-0.126,1.409c0.198,0.236,0.482,0.358,0.769,0.358c0.226,0,0.453-0.076,0.641-0.232
	c1.572-1.314,2.511-3.472,2.511-5.77c0-2.333-0.961-4.508-2.57-5.82c-0.428-0.35-1.058-0.282-1.407,0.144
	c-0.349,0.428-0.284,1.058,0.144,1.407c1.148,0.936,1.834,2.532,1.834,4.27C31.878,27.05,31.207,28.633,30.084,29.571z" />
    <path d="M24.03,12.536l-8.203,6.134h-4.275c-0.553,0-1,0.447-1,1v11.334c0,0.553,0.447,1,1,1h4.275l8.203,6.134
	c0.176,0.132,0.387,0.199,0.599,0.199c0.152,0,0.307-0.035,0.448-0.105c0.338-0.17,0.552-0.516,0.552-0.895v-24
	c0-0.379-0.214-0.725-0.552-0.895C24.739,12.275,24.332,12.31,24.03,12.536z M23.629,35.341l-6.87-5.138
	c-0.173-0.129-0.383-0.199-0.599-0.199h-3.608V20.67h3.608c0.216,0,0.426-0.07,0.599-0.199l6.87-5.138V35.341z" /> </symbol>
  <symbol viewBox="0 0 50 50" id="shape-video">
    <title>video</title>
    <path id="video-shape-1" d="M29.991,24.743H11.892c-0.552,0-1,0.447-1,1v11.476c0,0.553,0.448,1,1,1h18.099c0.552,0,1-0.447,1-1V25.743
	C30.991,25.19,30.543,24.743,29.991,24.743z M28.991,36.219H12.892v-9.476h16.099V36.219z" />
    <path id="video-shape-2" d="M41.651,26.612l-8.058,1.999c-0.446,0.11-0.759,0.511-0.759,0.971v3.864c0,0.463,0.317,0.864,0.767,0.973l8.058,1.933
	c0.077,0.019,0.156,0.027,0.233,0.027c0.223,0,0.441-0.074,0.619-0.215c0.241-0.189,0.381-0.479,0.381-0.785v-7.796
	c0-0.308-0.142-0.598-0.384-0.788C42.265,26.605,41.949,26.538,41.651,26.612z M40.892,34.11l-6.058-1.452v-2.294l6.058-1.503V34.11
	z" />
    <path id="video-shape-3" d="M15.213,22.652c2.109,0,3.826-1.664,3.826-3.71s-1.716-3.711-3.826-3.711c-2.11,0-3.826,1.665-3.826,3.711
	S13.104,22.652,15.213,22.652z M15.213,17.231c1.007,0,1.826,0.768,1.826,1.711s-0.819,1.71-1.826,1.71s-1.826-0.767-1.826-1.71
	S14.207,17.231,15.213,17.231z" />
    <path id="video-shape-4" d="M25.709,12.219c-2.976,0-5.396,2.34-5.396,5.217s2.42,5.217,5.396,5.217s5.396-2.34,5.396-5.217
	S28.685,12.219,25.709,12.219z M25.709,20.652c-1.873,0-3.396-1.443-3.396-3.217s1.523-3.217,3.396-3.217s3.396,1.443,3.396,3.217
	S27.582,20.652,25.709,20.652z" /> </symbol>
</svg>